<!-- <?xml-stylesheet type="text/css" href="../src/styles/svg-stylesheet.css" ?> -->

<!-- <svg xmlns="http://www.w3.org/2000/svg" width="32" height="32" viewBox="0 0 24 24"><g fill="none"><path fill="#888888" d="M9 12a1 1 0 1 1-2 0a1 1 0 0 1 2 0Zm4 0a1 1 0 1 1-2 0a1 1 0 0 1 2 0Zm4 0a1 1 0 1 1-2 0a1 1 0 0 1 2 0Z"/><circle cx="12" cy="12" r="10" stroke="currentColor" stroke-width="1.5" opacity=".25"/></g></svg> -->

<svg xmlns="http://www.w3.org/2000/svg" width="32" height="32" viewBox="0 0 24 24"><g fill="none"><path class="path-1" fill="#000" d="M9 12a1 1 0 1 1-2 0a1 1 0 0 1 2 0Zm4 0a1 1 0 1 1-2 0a1 1 0 0 1 2 0Zm4 0a1 1 0 1 1-2 0a1 1 0 0 1 2 0Z"/><circle cx="12" cy="12" r="10" stroke="currentColor" stroke-width="1.5" opacity=".5"/></g></svg>
